<?xml version="1.0" encoding="utf-8"?>
<?xml-stylesheet type="text/xsl" href="rss1.xsl"?>
<rss version="2.0" xmlns:atom="http://www.w3.org/2005/Atom" xmlns:content="http://purl.org/rss/1.0/modules/content/" xmlns:dc="http://purl.org/dc/elements/1.1/" xmlns:media="http://search.yahoo.com/mrss/">
<channel>
 <title>Getty</title>
 <link>http://www.gettyimg.com/</link>
 <atom:link href="http://www.gettyimg.com/" rel="self" type="application/rss+xml" />

 
                <item>
                <title><![CDATA[【Requests】[REQ AUD] - Mustard &amp; Travis Scott - Parking Lot (Flac)]]></title>
                <link><![CDATA[https://sharemania.us/threads/mustard-travis-scott-parking-lot-flac.249277/]]></link>
                <description><![CDATA[<article>
<blockquote class="messageText SelectQuoteContainer ugc baseHtml">
<a href="https://www.qobuz.com/us-en/album/parking-lot-mustard-travis-scott/iwz1k82fctbjb" target="_blank" class="externalLink" rel="nofollow">https://www.qobuz.com/us-en/album/parking-lot-mustard-travis-scott/iwz1k82fctbjb</a><br>
<br>
Please this song.
<div class="messageTextEndMarker">&nbsp;</div>
</blockquote>
</article>]]></description>
                <author><![CDATA[TonTon]]></author>
                </item>

                
                <item>
                <title><![CDATA[【Albums (lossless)】PACK - Ariana Grande @ Discography + Apple Videos [Apple Lossless 16-24 bits/44,1-48 kHz]]]></title>
                <link><![CDATA[https://sharemania.us/threads/ariana-grande-discography-apple-videos-apple-lossless-16-24-bits-44-1-48-khz.249276/]]></link>
                <description><![CDATA[<article>
<blockquote class="messageText SelectQuoteContainer ugc baseHtml">
<img src="https://i.ibb.co/G56jgnH/grande-ariana-57e833286801b.jpg" class="bbCodeImage LbImage" alt="[​IMG]" data-url="https://i.ibb.co/G56jgnH/grande-ariana-57e833286801b.jpg" style=""><br>
<img src="https://i.ibb.co/HFZW7Th/1.png" class="bbCodeImage LbImage" alt="[​IMG]" data-url="https://i.ibb.co/HFZW7Th/1.png" style=""><br>
<img src="https://i.ibb.co/MGSvRrg/2.png" class="bbCodeImage LbImage" alt="[​IMG]" data-url="https://i.ibb.co/MGSvRrg/2.png" style=""><br>
<img src="https://i.ibb.co/VtN9dtb/3.png" class="bbCodeImage LbImage" alt="[​IMG]" data-url="https://i.ibb.co/VtN9dtb/3.png" style=""><br>
<img src="https://i.ibb.co/xXj2Grm/4.png" class="bbCodeImage LbImage" alt="[​IMG]" data-url="https://i.ibb.co/xXj2Grm/4.png" style=""><br>
<img src="https://i.ibb.co/fMW3zvw/5.png" class="bbCodeImage LbImage" alt="[​IMG]" data-url="https://i.ibb.co/fMW3zvw/5.png" style=""><br>
<img src="https://i.ibb.co/jWp77NL/6.png" class="bbCodeImage LbImage" alt="[​IMG]" data-url="https://i.ibb.co/jWp77NL/6.png" style=""><br>
<img src="https://i.ibb.co/wJ1nLhP/7.png" class="bbCodeImage LbImage" alt="[​IMG]" data-url="https://i.ibb.co/wJ1nLhP/7.png" style=""><br>
<img src="https://i.ibb.co/HtyGrV0/8.png" class="bbCodeImage LbImage" alt="[​IMG]" data-url="https://i.ibb.co/HtyGrV0/8.png" style=""><br>
<div class="bbCodeBlock bbCodeVfcHH HiddenContent">
<div class="attribution type">Hidden Content:</div>
<blockquote>You must reply before you can see the hidden data contained here.</blockquote>
</div>
<div class="messageTextEndMarker">&nbsp;</div>
</blockquote>
</article>]]></description>
                <author><![CDATA[itunesboy]]></author>
                </item>

                
                <item>
                <title><![CDATA[【Music Videos】One Direction - One Thing  SD (XMiX Edit) (Clean) (DTVideos)]]></title>
                <link><![CDATA[https://sharemania.us/threads/one-direction-one-thing-sd-xmix-edit-clean-dtvideos.249274/]]></link>
                <description><![CDATA[<article>
<blockquote class="messageText SelectQuoteContainer ugc baseHtml">
thanks
<div class="messageTextEndMarker">&nbsp;</div>
</blockquote>
</article>]]></description>
                <author><![CDATA[gamerfronts]]></author>
                </item>

                
                <item>
                <title><![CDATA[【HD Live Performances】WEB-RiP - London Grammar - Radio 1's Piano Sessions (BBC 2024-07-07) WEB-RiP 1080p-50fps-TPF HDMania]]></title>
                <link><![CDATA[https://sharemania.us/threads/london-grammar-radio-1s-piano-sessions-bbc-2024-07-07-web-rip-1080p-50fps-tpf-hdmania.249275/]]></link>
                <description><![CDATA[<article>
<blockquote class="messageText SelectQuoteContainer ugc baseHtml">
<img src="https://i.imgur.com/lW0Ck2z.jpeg" class="bbCodeImage LbImage" alt="[​IMG]" data-url="https://i.imgur.com/lW0Ck2z.jpeg" style=""> <br>
<b><b>One Direction - One Thing (XMiX Edit) (Clean) <b> From DTVideos</b><br>
<div class="ToggleTriggerAnchor bbCodeSpoilerContainer">
<button type="button" class="button bbCodeSpoilerButton ToggleTrigger Tooltip JsOnly" data-target="> .SpoilerTarget"><span>Spoiler: <span class="SpoilerTitle">Media Info</span></span></button>
<div class="SpoilerTarget bbCodeSpoilerText">General<br>
Complete name : E:\Downloads\Music Videos\One Direction - One Thing (XMiX Edit) (Clean).mp4<br>
Format : MPEG-4<br>
Format profile : Base Media<br>
Codec ID : isom (isom/iso2/avc1/mp41)<br>
File size : 45.8 MiB<br>
Duration : 4 min 11 s<br>
Overall bit rate : 1 527 kb/s<br>
Movie name : One Thing (XMiX Edit) (Clean)<br>
Performer : One Direction<br>
Genre : Pop<br>
Recorded date : 2011<br>
Writing application : Lavf58.29.100<br>
Comment : sharing.wtf<br>
<br>
Video<br>
ID : 1<br>
Format : AVC<br>
Format/Info : Advanced Video Codec<br>
Format profile : High@L3<br>
Format settings, CABAC : Yes<br>
Format settings, RefFrames : 4 frames<br>
Codec ID : avc1<br>
Codec ID/Info : Advanced Video Coding<br>
Duration : 4 min 11 s<br>
Bit rate : 1 400 kb/s<br>
Width : 570 pixels<br>
Height : 320 pixels<br>
Display aspect ratio : 16:9<br>
Frame rate mode : Constant<br>
Frame rate : 30.000 FPS<br>
Color space : YUV<br>
Chroma subsampling : 4:2:0<br>
Bit depth : 8 bits<br>
Scan type : Progressive<br>
Bits/(Pixel*Frame) : 0.256<br>
Stream size : 41.7 MiB (91%)<br>
Writing library : x264 core 155 r2917 0a84d98<br>
Encoding settings : cabac=1 / ref=3 / deblock=1:0:0 / analyse=0x3:0x113 / me=hex / subme=7 / psy=1 / psy_rd=1.00:0.00 / mixed_ref=1 / me_range=16 / chroma_me=1 / trellis=1 / 8x8dct=1 / cqm=0 / deadzone=21,11 / fast_pskip=1 / chroma_qp_offset=-2 / threads=10 / lookahead_threads=1 / sliced_threads=0 / nr=0 / decimate=1 / interlaced=0 / bluray_compat=0 / constrained_intra=0 / bframes=3 / b_pyramid=2 / b_adapt=1 / b_bias=0 / direct=1 / weightb=1 / open_gop=0 / weightp=2 / keyint=250 / keyint_min=25 / scenecut=40 / intra_refresh=0 / rc_lookahead=40 / rc=abr / mbtree=1 / bitrate=1400 / ratetol=1.0 / qcomp=0.60 / qpmin=0 / qpmax=69 / qpstep=4 / ip_ratio=1.40 / aq=1:1.00<br>
Language : English<br>
<br>
Audio<br>
ID : 2<br>
Format : AAC<br>
Format/Info : Advanced Audio Codec<br>
Format profile : LC<br>
Codec ID : 40<br>
Duration : 4 min 11 s<br>
Bit rate mode : Constant<br>
Bit rate : 128 kb/s<br>
Channel(s) : 2 channels<br>
Channel positions : Front: L R<br>
Sampling rate : 44.1 kHz<br>
Frame rate : 43.066 FPS (1024 SPF)<br>
Compression mode : Lossy<br>
Stream size : 3.84 MiB (8%)<br>
Language : English<br>
Default : Yes<br>
Alternate group : 1</div>
</div>For </b>One Direction - One Thing 720p (Extended) (vjstreet Pool)<b><b> link</b></b></b><br>
<a href="https://sharemania.us/threads/one-direction-one-thing-720p-extended-vjstreet-pool.223034/" class="internalLink">https://sharemania.us/threads/one-direction-one-thing-720p-extended-vjstreet-pool.223034/</a><br>
<br>
<b>[/URL]
<div class="bbCodeBlock bbCodeVfcHH HiddenContent">
<div class="attribution type">Hidden Content:</div>
<blockquote>You must reply before you can see the hidden data contained here.</blockquote>
</div></b>
<div class="messageTextEndMarker">&nbsp;</div>
</blockquote>
</article>]]></description>
                <author><![CDATA[ThePixelFarm]]></author>
                </item>

                
                <item>
                <title><![CDATA[【Music Videos】One Direction - What Makes You Beautiful (Dave Audé Epic Remix) (Gamerfronts Video Edit)]]></title>
                <link><![CDATA[https://sharemania.us/threads/one-direction-what-makes-you-beautiful-dave-aud%C3%A9-epic-remix-gamerfronts-video-edit.249273/]]></link>
                <description><![CDATA[<article>
<blockquote class="messageText SelectQuoteContainer ugc baseHtml">
thanks
<div class="messageTextEndMarker">&nbsp;</div>
</blockquote>
</article>]]></description>
                <author><![CDATA[gamerfronts]]></author>
                </item>

                </channel></rss>